HIERARCHY
ROOT SpineBase
{
  OFFSET 0.000000 0.000000 0.000000
  CHANNELS 6 Xposition Yposition Zposition Zrotation Xrotation Yrotation
  JOINT SpineMid
  {
    OFFSET 0.000000 31.148789 0.000000
    CHANNELS 3 Zrotation Xrotation Yrotation
    JOINT SpineShoulder
    {
      OFFSET 0.133769 23.164013 -0.819013
      CHANNELS 3 Zrotation Xrotation Yrotation
      JOINT Neck
      {
        OFFSET 0.080135 7.668914 -0.603600
        CHANNELS 3 Zrotation Xrotation Yrotation
        JOINT Head
        {
          OFFSET -3.677148 12.877405 1.902513
          CHANNELS 3 Zrotation Xrotation Yrotation
          End Site
          {
            OFFSET 0 0 0
          }
        }
      }
      JOINT ShoulderLeft
      {
        OFFSET -17.697235 -4.754104 7.138234
        CHANNELS 3 Zrotation Xrotation Yrotation
        JOINT ElbowLeft
        {
          OFFSET -3.835411 -27.669038 2.124720
          CHANNELS 3 Zrotation Xrotation Yrotation
          JOINT WristLeft
          {
            OFFSET -0.170273 -21.733693 -0.687356
            CHANNELS 3 Zrotation Xrotation Yrotation
            JOINT HandLeft
            {
              OFFSET 0.301847 -7.472796 0.781520
              CHANNELS 3 Zrotation Xrotation Yrotation
              JOINT HandTipLeft
              {
                OFFSET 1.039796 -6.590532 1.294986
                CHANNELS 3 Zrotation Xrotation Yrotation
                End Site
                {
                  OFFSET 0 0 0
                }
              }
              JOINT ThumbLeft
              {
                OFFSET -2.100734 -0.507884 -1.136966
                CHANNELS 3 Zrotation Xrotation Yrotation
                End Site
                {
                  OFFSET 0 0 0
                }
              }
            }
          }
        }
      }
      JOINT ShoulderRight
      {
        OFFSET 13.714536 -3.869776 -5.967482
        CHANNELS 3 Zrotation Xrotation Yrotation
        JOINT ElbowRight
        {
          OFFSET 8.101988 -27.060457 -2.205799
          CHANNELS 3 Zrotation Xrotation Yrotation
          JOINT WristRight
          {
            OFFSET 2.660945 -21.850374 -6.710560
            CHANNELS 3 Zrotation Xrotation Yrotation
            JOINT HandRight
            {
              OFFSET -0.557293 -6.406332 -2.685676
              CHANNELS 3 Zrotation Xrotation Yrotation
              JOINT HandTipRight
              {
                OFFSET -0.314920 -7.841475 -0.545422
                CHANNELS 3 Zrotation Xrotation Yrotation
                End Site
                {
                  OFFSET 0 0 0
                }
              }
              JOINT ThumbRight
              {
                OFFSET 2.316498 -1.260697 -2.058025
                CHANNELS 3 Zrotation Xrotation Yrotation
                End Site
                {
                  OFFSET 0 0 0
                }
              }
            }
          }
        }
      }
    }
  }
  JOINT HipLeft
  {
    OFFSET -6.927146 0.028631 -1.380869
    CHANNELS 3 Zrotation Xrotation Yrotation
    JOINT KneeLeft
    {
      OFFSET 1.132715 -37.065158 3.929584
      CHANNELS 3 Zrotation Xrotation Yrotation
      JOINT AnkleLeft
      {
        OFFSET 7.849571 -37.000790 10.427048
        CHANNELS 3 Zrotation Xrotation Yrotation
        JOINT FootLeft
        {
          OFFSET -1.860552 -8.225342 -5.554290
          CHANNELS 3 Zrotation Xrotation Yrotation
          End Site
          {
            OFFSET 0 0 0
          }
        }
      }
    }
  }
  JOINT HipRight
  {
    OFFSET 7.370388 1.669210 -5.604887
    CHANNELS 3 Zrotation Xrotation Yrotation
    JOINT KneeRight
    {
      OFFSET 5.009967 -36.362772 -11.137714
      CHANNELS 3 Zrotation Xrotation Yrotation
      JOINT AnkleRight
      {
        OFFSET 7.543045 -36.606390 7.379497
        CHANNELS 3 Zrotation Xrotation Yrotation
        JOINT FootRight
        {
          OFFSET -4.070395 -3.528497 -13.341601
          CHANNELS 3 Zrotation Xrotation Yrotation
          End Site
          {
            OFFSET 0 0 0
          }
        }
      }
    }
  }
}
MOTION
Frames: 8
Frame Time: 0.033333
-21.792651 82.727256 340.332822 -0.000000 0.000000 16.459079 0.000000 0.000000 -16.459079 -0.000000 0.000000 0.000000 -0.000000 0.000000 0.000000 0.000000 0.000000 0.000000 -0.000000 0.000000 0.000000 -0.000000 0.000000 0.000000 -0.000000 0.000000 0.000000 -0.000000 0.000000 0.000000 0.000000 0.000000 0.000000 0.000000 0.000000 0.000000 -0.000000 0.000000 0.000000 -0.000000 0.000000 0.000000 -0.000000 0.000000 0.000000 -0.000000 0.000000 0.000000 0.000000 0.000000 0.000000 0.000000 0.000000 0.000000 0.000000 0.000000 -16.459079 -0.000000 0.000000 0.000000 -0.000000 0.000000 0.000000 0.000000 0.000000 0.000000 0.000000 0.000000 -16.459079 -0.000000 0.000000 0.000000 -0.000000 0.000000 0.000000 0.000000 0.000000 0.000000
-21.475948 82.656929 339.496826 0.008166 0.065734 16.193246 -0.026174 -0.060848 -16.193265 -0.000000 0.000000 0.000000 -1.107197 -0.893505 -0.100590 0.000000 0.000000 0.000000 1.292426 -1.396659 0.308808 -1.054830 -2.425108 -0.253114 1.238566 -0.588662 -0.078430 -1.493537 4.413706 0.080087 0.000000 0.000000 0.000000 0.000000 0.000000 0.000000 -0.000000 0.000000 0.000000 -0.000000 0.000000 0.000000 -1.094665 -1.010892 0.538746 0.625392 2.173209 -0.557604 0.000000 0.000000 0.000000 0.000000 0.000000 0.000000 -0.021982 -0.943793 -16.192573 -0.250268 0.846747 0.001195 -0.735180 0.692530 0.342346 0.000000 0.000000 0.000000 -0.008892 -3.171661 -16.879414 -1.758550 4.099721 0.831417 3.306900 -8.061417 -1.703934 0.000000 0.000000 0.000000
-21.187588 82.601632 338.720142 0.003192 0.122345 16.067937 -0.036929 -0.116683 -16.067978 -0.000000 0.000000 0.000000 -1.981025 -1.570471 -0.184207 0.000000 0.000000 0.000000 2.324581 -2.632728 0.597581 -1.988455 -4.057574 -0.446020 1.919448 -1.421371 -0.213044 -3.670676 7.522027 0.079406 0.000000 0.000000 0.000000 0.000000 0.000000 0.000000 -0.000000 0.000000 0.000000 -0.293727 1.299947 0.251058 -1.644239 -3.359407 0.668213 1.149636 4.069199 -1.005600 0.000000 0.000000 0.000000 0.000000 0.000000 0.000000 -0.037434 -1.763683 -16.068080 -1.551834 1.032637 -0.394456 -0.313299 1.779862 1.106473 0.000000 0.000000 0.000000 -0.054551 -5.945271 -17.347971 -3.298488 7.572641 1.660307 6.489466 -16.395523 -3.053106 0.000000 0.000000 0.000000
-20.927572 82.561365 338.002771 -0.014858 0.169949 16.082182 -0.032802 -0.167414 -16.082207 -0.000000 0.000000 0.000000 -2.616089 -2.028321 -0.241201 0.000000 0.000000 0.000000 3.090442 -3.707664 0.852606 -2.778072 -4.948687 -0.593363 1.891507 -2.128809 -0.357573 -4.474640 10.448294 0.345604 0.000000 0.000000 0.000000 0.000000 0.000000 0.000000 -0.000000 0.000000 0.000000 -0.452459 1.675775 0.348268 -2.098947 -4.844796 0.865074 1.590993 5.716475 -1.367842 0.000000 0.000000 0.000000 0.000000 0.000000 0.000000 -0.053124 -2.463135 -16.084899 -2.150226 1.384114 -0.545643 -0.476350 2.443789 1.612843 0.000000 0.000000 0.000000 -0.148024 -8.275382 -17.857960 -4.575087 10.380361 2.417420 9.454518 -24.414929 -3.957992 0.000000 0.000000 0.000000
-20.695900 82.536130 337.344712 -0.045946 0.208636 16.235532 -0.014219 -0.213162 -16.235475 -0.000000 0.000000 0.000000 -3.009029 -2.265952 -0.264752 0.000000 0.000000 0.000000 3.585517 -4.622384 1.062559 -3.409980 -5.145137 -0.703981 1.084784 -2.434790 -0.488769 -4.278004 12.649501 0.642844 0.000000 0.000000 0.000000 0.000000 0.000000 0.000000 -0.000000 0.000000 0.000000 -0.617419 1.861037 0.424465 -2.343817 -6.216999 1.008335 1.961383 7.141983 -1.661231 0.000000 0.000000 0.000000 0.000000 0.000000 0.000000 -0.074054 -3.045142 -16.242908 -2.630258 1.629111 -0.673508 -0.642228 2.961251 2.083700 0.000000 0.000000 0.000000 -0.294636 -10.129832 -18.404638 -5.543358 12.501992 3.038838 12.089290 -31.466122 -4.389762 0.000000 0.000000 0.000000
-20.492571 82.525925 336.745965 -0.090064 0.238479 16.528060 0.018499 -0.254247 -16.527831 -0.000000 0.000000 0.000000 -3.158234 -2.283115 -0.250977 0.000000 0.000000 0.000000 3.806364 -5.378317 1.218496 -3.877699 -4.677041 -0.781762 -0.484944 -2.189912 -0.593244 -2.914409 13.937938 0.887611 0.000000 0.000000 0.000000 0.000000 0.000000 0.000000 -0.000000 0.000000 0.000000 -0.787482 1.851837 0.478139 -2.392004 -7.493446 1.115637 2.267389 8.371820 -1.897275 0.000000 0.000000 0.000000 0.000000 0.000000 0.000000 -0.103571 -3.512130 -16.542453 -2.991746 1.769792 -0.782190 -0.809952 3.334619 2.516556 0.000000 0.000000 0.000000 -0.494113 -11.486822 -18.983956 -6.163814 13.928625 3.470868 14.263126 -37.019659 -4.408034 0.000000 0.000000 0.000000
-20.298649 82.535920 336.161258 -0.122790 0.277746 17.081675 0.035791 -0.301561 -17.081283 -0.000000 0.000000 0.000000 -2.865263 -1.885871 -0.163894 0.000000 0.000000 0.000000 3.556908 -5.871813 1.270765 -3.571233 -2.897593 -0.837083 -4.415842 -1.112209 -0.630435 3.072387 13.680364 1.092814 0.000000 0.000000 0.000000 0.000000 0.000000 0.000000 -0.000000 0.000000 0.000000 -1.063254 1.221339 0.485580 -1.709528 -8.278553 1.093107 2.211404 9.564002 -1.909933 0.000000 0.000000 0.000000 0.000000 0.000000 0.000000 -0.155726 -3.813458 -17.102440 -3.285941 1.696080 -0.902054 -1.107262 3.799781 3.013792 0.000000 0.000000 0.000000 -1.014129 -12.342265 -19.685824 -6.156277 14.928491 3.649221 15.691881 -40.724461 -4.193360 0.000000 0.000000 0.000000
-20.161753 82.559345 335.734535 -0.200674 0.240984 17.731289 0.117750 -0.290651 -17.730569 -0.000000 0.000000 0.000000 -2.351473 -1.288663 -0.047342 0.000000 0.000000 0.000000 3.199337 -6.529846 1.333689 -3.684280 -0.045853 -0.870865 -6.282157 -1.620534 -0.841611 5.000886 15.824949 1.797598 0.000000 0.000000 0.000000 0.000000 0.000000 0.000000 -0.347131 0.700720 0.240317 -0.873065 0.051005 0.222590 -1.384364 -9.576817 1.186943 1.948209 10.901115 -1.967530 0.000000 0.000000 0.000000 0.000000 0.000000 0.000000 -0.132155 -3.881807 -17.755722 -3.420701 1.468326 -0.998452 -1.352479 3.836053 3.439008 0.000000 0.000000 0.000000 -1.334111 -12.358677 -20.323827 -5.688735 14.673322 3.471950 15.142773 -39.406306 -3.949686 0.000000 0.000000 0.000000
